<?xml version="1.0" encoding="iso-8859-1"?>
<!-- Generator: Adobe Illustrator 16.0.0, SVG Export Plug-In . SVG Version: 6.00 Build 0)  -->
<!DOCTYPE svg PUBLIC "-//W3C//DTD SVG 1.1//EN" "http://www.w3.org/Graphics/SVG/1.1/DTD/svg11.dtd">
<svg xmlns="http://www.w3.org/2000/svg" xmlns:xlink="http://www.w3.org/1999/xlink" version="1.1" id="Capa_1" x="0px" y="0px" width="512px" height="512px" viewBox="0 0 331.014 331.014" style="enable-background:new 0 0 331.014 331.014;" xml:space="preserve">
<g>
	<g>
		<path d="M229.33,105.501c-1.051,0-2.084,0.06-3.129,0.084c-3.236-8.584-8.377-16.711-15.42-24.104    c-21.257-22.296-57.028-35.608-95.717-35.608C51.621,45.873,0,83.58,0,129.916c0,33.249,26.121,62.774,67.046,76.405    c-5.209,21.028-9.665,28.901-11.312,30.06c-4.975,2.486-4.243,6.762-4.047,7.59c0.276,1.172,1.612,4.99,7.127,4.99    c7.635,0,53.821-9.842,67.803-35.458c3.519-0.252,6.98-0.63,10.385-1.123c14.697,23.28,45.399,38.959,81.74,41.632    c12.683,22.464,53.203,31.129,59.928,31.129l0,0c5.53,0,6.792-4.132,6.99-4.961c0.191-0.828,0.924-5.08-3.747-7.392    c-1.466-1.146-5.194-7.902-9.56-25.31c35.83-12.166,58.66-38.197,58.66-67.519C331.014,138.905,285.396,105.501,229.33,105.501z     M58.808,242.812l-0.036-6.148c0.012,0,0.024,0.006,0.036,0.006V242.812z M278.67,272.842h0.013l-0.013,6.149V272.842z     M122.327,201.457c-2.399,0.12-4.509,1.621-5.407,3.844c-6.011,14.964-30.348,24.812-45.889,29.033    c2.786-6.401,5.954-16.069,9.322-30.811c0.727-3.177-1.156-6.365-4.29-7.278c-38.734-11.169-63.765-37.206-63.765-66.329    c0-39.56,46.105-71.745,102.766-71.745c35.386,0,67.843,11.887,86.812,31.795c11.139,11.679,16.651,25.397,15.967,39.656    C215.993,167.986,174.932,198.875,122.327,201.457z M263.334,237.42c-3.135,0.907-5.02,4.102-4.293,7.278    c2.72,11.907,5.277,20.073,7.584,25.73c-13.463-3.843-33.225-12.185-38.215-24.62c-0.9-2.228-3.015-3.729-5.404-3.855    c-31.279-1.524-58.045-13.307-72.268-31.32c47.275-10.851,80.68-44.003,80.68-81.386c0-3.807-0.366-7.635-1.074-11.436    c48.818,0.381,88.372,28.111,88.372,62.149C318.716,205.162,296.973,227.723,263.334,237.42z" fill="#d5e5f2"/>
	</g>
</g>
<g>
</g>
<g>
</g>
<g>
</g>
<g>
</g>
<g>
</g>
<g>
</g>
<g>
</g>
<g>
</g>
<g>
</g>
<g>
</g>
<g>
</g>
<g>
</g>
<g>
</g>
<g>
</g>
<g>
</g>
</svg>
