<?xml version="1.0" encoding="iso-8859-1"?>
<!-- Generator: Adobe Illustrator 19.0.0, SVG Export Plug-In . SVG Version: 6.00 Build 0)  -->
<svg xmlns="http://www.w3.org/2000/svg" xmlns:xlink="http://www.w3.org/1999/xlink" version="1.1" id="Capa_1" x="0px" y="0px" viewBox="0 0 511.998 511.998" style="enable-background:new 0 0 511.998 511.998;" xml:space="preserve" width="512px" height="512px">
<g>
	<g>
		<path d="M472.963,39.002c-51.962-51.96-136.507-51.959-188.468,0c-25.173,25.173-39.035,58.639-39.035,94.234    c0,10.075,1.113,19.979,3.276,29.573l-12.407-12.407c-3.991-3.99-10.459-3.99-14.452,0l-77.424,77.425    c-3.99,3.99-3.99,10.46,0,14.451l20.965,20.965L34.569,407.169c-8.337,9.168-12.928,21.04-12.928,33.432    c0,9.809,2.826,19.178,8.08,27.191L2.993,494.521c-3.99,3.99-3.99,10.46,0,14.452c1.996,1.996,4.611,2.993,7.225,2.993    c2.615,0,5.23-0.997,7.225-2.993l26.727-26.727c8.225,5.389,17.697,8.102,27.185,8.102c11.947,0,23.919-4.298,33.438-12.95    l143.93-130.851l20.965,20.965c1.917,1.916,4.516,2.993,7.225,2.993s5.308-1.077,7.225-2.993l77.425-77.424    c1.916-1.916,2.993-4.515,2.993-7.225s-1.077-5.309-2.993-7.225l-12.408-12.407c9.594,2.163,19.498,3.276,29.572,3.276    c35.595,0,69.062-13.863,94.235-39.035c25.173-25.173,39.035-58.639,39.035-94.234C511.998,97.641,498.136,64.175,472.963,39.002z     M91.048,462.275c-11.581,10.529-29.323,10.107-40.392-0.958c-0.001-0.001-0.002-0.002-0.003-0.003    c-0.001-0.001-0.002-0.002-0.003-0.003c-5.527-5.529-8.571-12.883-8.571-20.707c-0.001-7.296,2.702-14.286,7.612-19.685    l130.196-143.209l54.371,54.371L91.048,462.275z M276.915,345.835L166.131,235.05l62.972-62.973l110.785,110.785L276.915,345.835z     M298.948,213.019c-21.314-21.313-33.051-49.648-33.051-79.783c0-26.704,9.222-51.989,26.151-72.231l158.91,158.91    C406.675,256.871,340.504,254.576,298.948,213.019z M465.412,205.466L306.504,46.557c20.843-17.394,46.533-26.1,72.227-26.1    c28.892,0,57.786,10.998,79.782,32.995c21.312,21.312,33.05,49.646,33.05,79.783C491.563,159.94,482.341,185.224,465.412,205.466z    " fill="#FFFFFF"/>
	</g>
</g>
<g>
	<g>
		<path d="M281.125,272.621l-41.783-41.783c-3.991-3.99-10.459-3.99-14.452,0c-3.99,3.99-3.99,10.46,0,14.452l41.783,41.783    c1.996,1.996,4.61,2.993,7.225,2.993c2.615,0,5.23-0.997,7.225-2.993C285.117,283.082,285.117,276.612,281.125,272.621z" fill="#FFFFFF"/>
	</g>
</g>
<g>
	<g>
		<path d="M373.305,170.323l-44.313-44.314c-3.991-3.99-10.459-3.99-14.452,0c-3.99,3.99-3.99,10.461,0,14.451l44.314,44.314    c1.996,1.996,4.61,2.993,7.225,2.993s5.23-0.998,7.225-2.993C377.295,180.783,377.295,174.313,373.305,170.323z" fill="#FFFFFF"/>
	</g>
</g>
<g>
	<g>
		<path d="M386.911,188.162c-13.15,0-13.172,20.437,0,20.437C400.061,208.598,400.083,188.162,386.911,188.162z" fill="#FFFFFF"/>
	</g>
</g>
<g>
</g>
<g>
</g>
<g>
</g>
<g>
</g>
<g>
</g>
<g>
</g>
<g>
</g>
<g>
</g>
<g>
</g>
<g>
</g>
<g>
</g>
<g>
</g>
<g>
</g>
<g>
</g>
<g>
</g>
</svg>
