<?xml version="1.0" encoding="utf-8"?>
<!-- Generator: Adobe Illustrator 21.0.2, SVG Export Plug-In . SVG Version: 6.00 Build 0)  -->
<svg version="1.1" id="object" xmlns="http://www.w3.org/2000/svg" xmlns:xlink="http://www.w3.org/1999/xlink" x="0px" y="0px"
	 viewBox="0 0 154.9 259" style="enable-background:new 0 0 154.9 259;" xml:space="preserve">
<style type="text/css">
	.st0{fill:#231F20;}
	.st1{fill:#FFC73F;}
	.st2{clip-path:url(#SVGID_2_);fill:#FDBB16;}
	.st3{clip-path:url(#SVGID_4_);fill:#FDBB16;}
</style>
<g>
	<path class="st0" d="M20.8,185.7c0,0-19.1-8.6-20.5-12c-1.4-3.4,3.8-11.4,3.8-11.4l16.2,9.1L20.8,185.7z"/>
	<path class="st0" d="M134.3,185c0,0,19-8.8,20.4-12.3c1.4-3.4-4-11.3-4-11.3l-16,9.3L134.3,185z"/>
	<g>
		<path class="st1" d="M48.4,253.9c17.6,7,41.6,6.8,59.1-0.4c17.5-7.2,30-15.4,29-43.7c-1-28.3-2.2-143.5-2.5-173.1
			C133.7,7,100.9,0,100.9,0l-49,0.3c0,0-32.8,7.4-32.7,37c0.1,29.6,0.3,144.9-0.3,173.2C18.2,238.8,30.9,246.9,48.4,253.9z"/>
		<polygon class="st0" points="30.8,144.3 31.9,73 21.5,44.3 21.7,179.2 		"/>
		<path class="st0" d="M24.8,184.8c23.7,10,35.9,11.5,51.7,11.7c15.8,0.2,30.3-2.2,53.7-12.4c-2.2-8.8-9.7-38-9.7-38
			c-5.8,1-26.1,4.2-43.2,3.3c-17.1-0.9-37.4-1.8-43.2-2.7C34.1,146.7,27,176.1,24.8,184.8z"/>
		<path class="st0" d="M34.8,71.3c10.8-3,24.6-5.8,42.1-6.7c17.4-0.9,38.3,5.2,42,6.2c2.3-8.7,2.4-8.7,9.9-29c0,0-30.9-5.8-52.2-6
			c-21.3-0.1-52,6.6-52,6.6C32.3,62.6,32.3,62.6,34.8,71.3z"/>
		<g>
			<defs>
				<path id="SVGID_1_" d="M48.4,253.9c-17.6-7-30.2-15.1-29.6-43.4c0.6-28.3,0.4-143.5,0.3-173.2c-0.1-29.6,32.7-37,32.7-37
					l24.6,0.4L78,259C78,259,66,260.9,48.4,253.9z"/>
			</defs>
			<clipPath id="SVGID_2_">
				<use xlink:href="#SVGID_1_"  style="overflow:visible;"/>
			</clipPath>
			<path class="st2" d="M44.8,256.4l-0.2-0.3c0,0-12.4-28-28.4-46.1c-4.7,2.8-0.2,22.1,5.1,31.7C26.6,251.4,44.8,256.4,44.8,256.4z"
				/>
		</g>
	</g>
	<g>
		<polygon class="st0" points="123.8,143.7 121.7,72.4 131.8,43.6 133.2,178.5 		"/>
		<g>
			<defs>
				<path id="SVGID_3_" d="M107.5,253.5c17.5-7.2,30-15.4,29-43.7c-1-28.3-2.2-143.5-2.5-173.1C133.7,7,100.9,0,100.9,0L76.3,0.8
					L78,259C78,259,90,260.7,107.5,253.5z"/>
			</defs>
			<clipPath id="SVGID_4_">
				<use xlink:href="#SVGID_3_"  style="overflow:visible;"/>
			</clipPath>
			<path class="st3" d="M111.1,256l0.2-0.3c0,0,12-28.2,27.9-46.5c4.7,2.8,0.5,22.1-4.7,31.8C129.3,250.8,111.1,256,111.1,256z"/>
		</g>
	</g>
</g>
</svg>
