<?xml version="1.0" encoding="UTF-8"?><!DOCTYPE svg PUBLIC "-//W3C//DTD SVG 1.1//EN" "http://www.w3.org/Graphics/SVG/1.1/DTD/svg11.dtd"><svg xmlns="http://www.w3.org/2000/svg" xmlns:xlink="http://www.w3.org/1999/xlink"><defs>
        <path id="SVGID_1_" d="M48.4 253.9c-17.6-7-30.2-15.1-29.6-43.4.6-28.3.4-143.5.3-173.2C19 7.7 51.8.3 51.8.3l24.6.4L78 259s-12 1.9-29.6-5.1z"/>
    
            <path id="SVGID_3_" d="M107.5 253.5c17.5-7.2 30-15.4 29-43.7-1-28.3-2.2-143.5-2.5-173.1C133.7 7 100.9 0 100.9 0L76.3.8 78 259s12 1.7 29.5-5.5z"/>
        </defs><symbol id="icon-17843-NR9UHP" viewBox="0 0 154.9 259">
    <style>
        .st0{fill:#231f20}.st1{fill:#ffc73f}.st2,.st3{clip-path:url(#SVGID_2_);fill:#fdbb16}.st3{clip-path:url(#SVGID_4_)}
    </style>
    <path class="st0" d="M20.8 185.7s-19.1-8.6-20.5-12c-1.4-3.4 3.8-11.4 3.8-11.4l16.2 9.1.5 14.3z"/>
    <path class="st0" d="M134.3 185s19-8.8 20.4-12.3c1.4-3.4-4-11.3-4-11.3l-16 9.3-.4 14.3z"/>
    <path class="st1" d="M48.4 253.9c17.6 7 41.6 6.8 59.1-.4s30-15.4 29-43.7c-1-28.3-2.2-143.5-2.5-173.1C133.7 7 100.9 0 100.9 0l-49 .3s-32.8 7.4-32.7 37c.1 29.6.3 144.9-.3 173.2-.7 28.3 12 36.4 29.5 43.4z"/>
    <path class="st0" d="M30.8 144.3L31.9 73 21.5 44.3l.2 134.9z"/>
    <path class="st0" d="M24.8 184.8c23.7 10 35.9 11.5 51.7 11.7 15.8.2 30.3-2.2 53.7-12.4-2.2-8.8-9.7-38-9.7-38-5.8 1-26.1 4.2-43.2 3.3-17.1-.9-37.4-1.8-43.2-2.7 0 0-7.1 29.4-9.3 38.1z"/>
    <path class="st0" d="M34.8 71.3c10.8-3 24.6-5.8 42.1-6.7 17.4-.9 38.3 5.2 42 6.2 2.3-8.7 2.4-8.7 9.9-29 0 0-30.9-5.8-52.2-6-21.3-.1-52 6.6-52 6.6 7.7 20.2 7.7 20.2 10.2 28.9z"/>
    
    <clipPath id="SVGID_2_">
        <use xlink:href="#SVGID_1_" overflow="visible"/>
    </clipPath>
    <path class="st2" d="M44.8 256.4l-.2-.3s-12.4-28-28.4-46.1c-4.7 2.8-.2 22.1 5.1 31.7 5.3 9.7 23.5 14.7 23.5 14.7z"/>
    <g>
        <path class="st0" d="M123.8 143.7l-2.1-71.3 10.1-28.8 1.4 134.9z"/>
        
        <clipPath id="SVGID_4_">
            <use xlink:href="#SVGID_3_" overflow="visible"/>
        </clipPath>
        <path class="st3" d="M111.1 256l.2-.3s12-28.2 27.9-46.5c4.7 2.8.5 22.1-4.7 31.8-5.2 9.8-23.4 15-23.4 15z"/>
    </g>
</symbol><symbol id="icon-angle-arrow-down" viewBox="0 0 284.9 166.2">
    <path d="M282.1 17.1L267.8 2.9C265.9 1 263.7 0 261.2 0s-4.7 1-6.6 2.9L142.5 115.1 30.3 2.9C28.4 1 26.2 0 23.7 0S19 1 17.1 2.9L2.9 17.1C.9 19 0 21.2 0 23.7s1 4.7 2.9 6.6l133 133c1.9 1.9 4.1 2.9 6.6 2.9s4.7-1 6.6-2.9l133.1-133c1.9-1.9 2.8-4.1 2.8-6.6-.1-2.5-1-4.7-2.9-6.6z"/>
</symbol><symbol id="icon-arrow-pointing-right-in-a-circle" viewBox="0 0 438.533 438.533">
    <path d="M409.133 109.203c-19.608-33.592-46.205-60.189-79.798-79.796C295.736 9.801 259.058 0 219.273 0c-39.781 0-76.47 9.801-110.063 29.407-33.595 19.604-60.192 46.201-79.8 79.796C9.801 142.8 0 179.489 0 219.267c0 39.78 9.804 76.463 29.407 110.062 19.607 33.592 46.204 60.189 79.799 79.798 33.597 19.605 70.283 29.407 110.063 29.407s76.47-9.802 110.065-29.407c33.593-19.602 60.189-46.206 79.795-79.798 19.603-33.596 29.403-70.284 29.403-110.062.001-39.782-9.8-76.472-29.399-110.064zm-47.4 122.908l-25.978 25.981-103.35 103.349c-3.433 3.43-7.714 5.147-12.852 5.147-5.137 0-9.419-1.718-12.847-5.147l-25.981-25.98c-3.616-3.607-5.424-7.898-5.424-12.847 0-4.942 1.809-9.227 5.424-12.847l53.962-53.954H91.363c-4.948 0-9.229-1.813-12.847-5.428-3.615-3.613-5.424-7.898-5.424-12.847v-36.547c0-4.948 1.809-9.231 5.424-12.847 3.617-3.617 7.898-5.426 12.847-5.426h143.325l-53.962-53.959c-3.428-3.428-5.14-7.708-5.14-12.847 0-5.141 1.712-9.42 5.14-12.851l25.981-25.981c3.427-3.425 7.71-5.137 12.847-5.137 5.145 0 9.419 1.711 12.852 5.137l103.35 103.356 25.978 25.981c3.432 3.427 5.144 7.707 5.144 12.847-.001 5.14-1.713 9.422-5.145 12.847z"/>
</symbol><symbol id="icon-baby-face" viewBox="0 0 30.5 31.1">
    <path d="M15.3 0C6.9 0 0 6.9 0 15.3c0 7.3 5.1 13.4 11.9 14.9-.8-.8-1.3-1.8-1.5-2.9-4.7-1.9-8.1-6.6-8.1-12 0-5.2 3.1-9.8 7.6-11.8-.2 1 .6 2.2 1.4 3.2.8.9.4 1.7-.2 2.2-.1.1-.2.4-.1.6.1.2.3.4.5.4 7.8.1 9.7-4.3 10.2-5.9 3.9 2.2 6.6 6.5 6.6 11.3 0 5.1-3 9.6-7.3 11.7-.1 1.1-.6 2.2-1.4 3 6.3-1.9 11-7.7 11-14.7C30.5 6.9 23.7 0 15.3 0z"/>
    <circle cx="11.2" cy="14.9" r="1.7"/>
    <circle cx="19.2" cy="14.9" r="1.7"/>
    <path d="M10.5 24.7c.4-1.2 1.2-2.3 2.3-2.9.1-1.4 1.2-2.5 2.7-2.5 1.4 0 2.5 1 2.6 2.4 1.2.7 2.1 1.8 2.5 3.1.7-.7 1.1-1.6 1.1-2.5 0-2.5-2.8-4.4-6.2-4.4-3.4 0-6.2 2-6.2 4.4.2.8.6 1.7 1.2 2.4z"/>
    <path d="M16.2 24.5c-.2-.1-.4-.1-.6-.1-.2 0-.4 0-.6.1.2 0 .1.1 0 0-.7.3-1.2 1-1.2 1.8v.1c.6.1 1.2.2 1.9.2.6 0 1.3-.1 1.9-.2v-.1c-.1-.8-.6-1.5-1.4-1.8z"/>
    <path d="M15.6 20.1c-1 0-1.8.6-2.1 1.4.7-.3 1.4-.5 2.2-.5.7 0 1.4.1 2 .4-.4-.8-1.2-1.3-2.1-1.3z"/>
    <path d="M15.6 21.6c-2.6 0-4.8 2.1-4.8 4.8 0 2.6 2.1 4.8 4.8 4.8 2.6 0 4.8-2.1 4.8-4.8 0-2.7-2.2-4.8-4.8-4.8zm0 7.2c-1.4 0-2.5-1.1-2.5-2.5s1.1-2.5 2.5-2.5 2.5 1.1 2.5 2.5-1.1 2.5-2.5 2.5z"/>
</symbol><symbol id="icon-briefcase" viewBox="0 0 511.6 438.5">
    <path d="M319.8 301.5c0 4.9-1.8 9.2-5.4 12.8-3.6 3.6-7.9 5.4-12.9 5.4h-91.4c-5 0-9.2-1.8-12.9-5.4-3.6-3.6-5.4-7.9-5.4-12.8v-45.7H0v137c0 12.6 4.5 23.3 13.4 32.3 8.9 8.9 19.7 13.4 32.3 13.4H466c12.6 0 23.3-4.5 32.3-13.4 8.9-8.9 13.4-19.7 13.4-32.3v-137H319.8v45.7z"/>
    <path d="M219.3 255.8h73.1v36.5h-73.1z"/>
    <path d="M498.2 86.5c-8.9-8.9-19.7-13.4-32.3-13.4H365.4V27.4c0-7.6-2.7-14.1-8-19.4-5.3-5.3-11.8-8-19.4-8H173.6c-7.6 0-14.1 2.7-19.4 8s-8 11.8-8 19.4v45.7H45.7c-12.6 0-23.3 4.5-32.3 13.4C4.5 95.5 0 106.2 0 118.8v109.6h511.6V118.8c0-12.6-4.4-23.3-13.4-32.3zM328.9 73.1H182.7V36.5h146.2v36.6z"/>
</symbol><symbol id="icon-checked" viewBox="0 0 26 20">
    <path d="M.3 11c-.2-.2-.3-.5-.3-.7s.1-.5.3-.7l1.4-1.4c.4-.4 1-.4 1.4 0l.1.1 5.5 5.9c.2.2.5.2.7 0L22.8.3h.1c.4-.4 1-.4 1.4 0l1.4 1.4c.4.4.4 1 0 1.4l-16 16.6c-.2.2-.4.3-.7.3s-.5-.1-.7-.3L.5 11.3.3 11z"/>
</symbol><symbol id="icon-chronometer-arrow" viewBox="0 0 583.5 612">
    <path d="M569.5 375.8c-12.3 124-112.8 223.7-236.9 235.1-146.7 13.4-271.8-94.4-286.3-234.6H20.4c-15.7 0-25.5-17-17.7-30.6l57.8-100.1c7.9-13.6 27.5-13.6 35.4 0l57.8 100.1c7.9 13.6-2 30.6-17.7 30.6h-22.5C128.2 481 225.6 559.5 337.3 543.1 420 531 487.1 465.8 501.1 383.4c21-123.3-73.8-230.6-193.3-230.6-38.7 0-76.1 11.2-108.2 32.5-14.9 9.9-35.6 7.9-46.5-6.2-11.9-15.4-8.2-37.4 7.7-48.1 34.5-23.3 73.5-37.8 114.4-42.9v-38h-26.8c-9.2 0-16.7-7.5-16.7-16.7V16.7c0-9.2 7.5-16.7 16.7-16.7h124.2c9.2 0 16.7 7.5 16.7 16.7v16.8c0 9.2-7.5 16.7-16.7 16.7h-29.5v38.3C480 107 583.8 231.1 569.5 375.8zm8.6-252.5l-50.3-46.5c-6.8-6.3-17.3-5.8-23.6.9l-13.3 14.4c-6.3 6.8-5.8 17.3.9 23.6l50.3 46.5c6.8 6.3 17.3 5.8 23.6-.9l13.3-14.4c6.3-6.8 5.9-17.4-.9-23.6zM307 187.1v163.2h161.6c0-99.4-75.4-163.2-161.6-163.2z"/>
</symbol><symbol id="icon-chronometer" viewBox="0 0 612 705.3">
    <path d="M296.1 684.5c-12.7 0-23-10.3-23-23v-59.1c0-12.7 10.3-23 23-23s23 10.3 23 23v59.1c0 12.7-10.3 23-23 23z"/>
    <path d="M348.6 118V91.6h64.9V86c0-47.5-38.5-86-86.1-86h-62.7c-47.5 0-86.1 38.5-86.1 86.1v5.5h66.3v26.2C105.9 142 0 263.1 0 409.2c0 163.6 132.6 296.1 296.1 296.1 163.5 0 296.1-132.6 296.1-296.1 0-145.7-105.2-266.4-243.6-291.2zm-52.5 518.2c-117.4 0-214.3-89.6-225.9-204h32.6c12.7 0 23-10.3 23-23s-10.3-23-23-23H70.2c11.6-114.4 108.4-204 225.9-204 125.2 0 227.1 101.8 227.1 227s-101.9 227-227.1 227z"/>
    <path d="M296 195.3h-1v211.8h214.7c-1-117.1-96.2-211.8-213.7-211.8z"/>
    <path d="M605.3 153.3l-48-48c-4.3-4.3-10.1-6.7-16.1-6.7-6 0-11.8 2.4-16.1 6.7l-38.9 38.9 80.2 80.2 38.9-38.9c8.9-8.9 8.9-23.3 0-32.2z"/>
</symbol><symbol id="icon-coin" viewBox="0 0 485.6 412.3">
    <path d="M288.2 316.7l-.8-1.2c-6.4-10-5.5-22 2.2-31.3 1.1-1.3 2.3-2.7 3.8-4.3 4.6-4.6 11.9-10.8 22.4-10.8 6.4 0 12.7 2.3 19.1 7.1 10 7.4 20 15.2 29.5 22.6 1.9 1.4 3.7 2.9 5.6 4.3 1.4-1.6 2.8-3.3 4.3-4.9 9.9-11.4 19.7-22.8 29.5-34.2 5.4-18.4 8.3-37.8 8.3-57.9C412.1 92.3 319.8 0 206 0 92.3.1 0 92.4 0 206.2s92.3 206.1 206.1 206.1c46.2 0 88.9-15.2 123.2-40.9-11-14.3-22.2-28.7-33.1-43-3-3.9-5.6-7.9-8-11.7zm-22.9-29.2c-9 10.9-20.7 18.3-34.4 22-6 1.6-8.6 4.8-8.3 11 .3 6.1 0 12.2 0 18.3 0 5.4-2.8 8.3-8.1 8.5-6.5.2-13.1.2-19.7 0-5.7-.1-8.4-3.4-8.5-9-.1-4.4-.1-8.9-.1-13.3-.1-9.8-.4-10.2-9.9-11.7-12.1-1.9-23.9-4.7-35-10-8.7-4.2-9.6-6.4-7.1-15.5 1.9-6.8 3.7-13.6 5.8-20.3 2.4-7.8 4.5-8.8 11.7-5 12.2 6.4 25.2 9.9 38.8 11.6 8.8 1.1 17.3.2 25.5-3.3 15.1-6.6 17.5-24.2 4.7-34.7-4.4-3.6-9.3-6.2-14.5-8.5-13.3-5.8-27.1-10.3-39.7-17.8-20.4-12.2-33.3-28.9-31.8-53.7 1.7-28 17.5-45.5 43.2-54.8 10.6-3.9 10.6-3.7 10.7-14.8V75.3c.2-8.4 1.6-9.8 9.9-10 2.6-.1 5.2 0 7.7 0 17.7 0 17.7 0 17.8 17.7.1 12.5 0 12.6 12.5 14.5 9.6 1.5 18.7 4.3 27.5 8.2 4.9 2.1 6.7 5.6 5.2 10.7-2.2 7.6-4.3 15.3-6.7 22.9-2.3 7.2-4.6 8.2-11.5 4.9-13.8-6.7-28.3-9.5-43.6-8.6-4 .2-7.9.8-11.6 2.4-13.2 5.8-15.3 20.3-4.1 29.3 5.7 4.5 12.2 7.8 18.9 10.6 11.7 4.8 23.4 9.5 34.5 15.6 35.5 19.4 45.1 63.7 20.2 94z"/>
    <path d="M480.1 227.9c-4.8-3.9-8.1-5.9-11.1-5.9-3.4 0-6.4 2.6-11 7.9-23.2 26.9-46.4 53.7-69.6 80.6-5.2 6-10.4 12-15.8 18.2-2.7-2.1-5.2-4-7.7-6-13.7-10.6-27.2-21.3-41-31.6-3.1-2.3-5.7-3.5-8.1-3.5-3 0-5.8 1.8-9.2 5.3-1 1-1.8 2-2.7 3.1-2.5 3-2.9 6.2-.8 9.5 2.5 3.9 5 7.9 7.8 11.6 18.3 23.8 36.6 47.5 55 71.3 2.2 2.9 4.8 4.4 7.4 4.4 2.8 0 5.6-1.7 8-5.2 33.7-48.2 67.3-96.3 100.9-144.5 5.1-7.3 4.6-9.7-2.1-15.2z"/>
</symbol><symbol id="icon-cross-out" viewBox="0 0 224.512 224.512">
    <path d="M224.507 6.997L217.521 0 112.256 105.258 6.998 0 .005 6.997l105.258 105.257L.005 217.512l6.993 7L112.256 119.24l105.265 105.272 6.986-7-105.258-105.258z"/>
</symbol><symbol id="icon-dollar-symbol" viewBox="0 0 483.188 483.188">
    <path d="M465.267 344.166c-9.2-.7-28.3 9.7-33.6 12.3-18.7 9.4-44.5 24.1-61.5 35.8-1.2.8-2.8 1.9-4 2.6-7.6 4.9-15.7 8.2-24.7 10.1-49.4 10.5-121.4 11.7-121.4 11.7l-4.2.2c-3.2.2-6-2-6.4-5.1-.5-3.4 2-6.5 5.5-6.8l107.1-10.2c11.8-1.3 21.2-12.3 19.9-24.7-1.3-12.4-12.7-21.5-24.5-20.2l-95.2-1.2c-6.5-.1-16.9-1.7-23.1-3.5-61.4-17.9-96-1.1-114.4 6.7-4.1-6.8-11.9-11.2-20.6-10.6l-41.1 2.7c-13.7.9-24 12.3-23 25.5l6.6 91.2c.9 13.2 12.8 23.1 26.4 22.2l41.1-2.7c8.7-.6 15.7-5.9 18.8-13.2l180.4 7.8c20.1 2.1 38.9-.3 56.6-9.6l5.2-2.7 136.3-79.8c6.7-3.9 11.5-10.7 11.7-18.3.4-9.1-4.9-19.3-17.9-20.2zm-417.1 117.1c-7.7 0-14-6-14-13.5s6.3-13.5 14-13.5 14 6 14 13.5-6.3 13.5-14 13.5z"/>
    <path d="M368.167 372.566c13.9-9.7 42.4-25.2 58.5-33.3 4.9-2.4 10-4.9 15.5-6.8-7-4.7-14.5-4.9-22.3-1.9-15.3 6.1-43.5 19.7-57.9 27.5-.1.2-.2.4-.2.6 1 3 1.8 6.1 2.1 9.3.3 2.6.2 5.1.1 7.6 1.3-1 2.7-2 4.2-3z"/>
    <path d="M404.967 321.466c-7-4.5-14.4-4.7-22-1.7-9.5 3.7-30.6 10.6-40 15.6 4 2.5 7.6 5.6 10.7 9.2.6-.4 1.2-.9 1.9-1.3l6.9-3.8c10-5.5 31.5-13.1 42.5-18z"/>
    <path d="M391.267 144.066c26.7-11.4 45.5-38 45.5-68.9 0-41.4-33.6-74.9-74.9-74.9s-74.9 33.6-74.9 74.9c0 .4.1.8.1 1.2 44.5 4.7 82.7 30.8 104.2 67.7z"/>
    <path d="M272.767 321.566c60.1 0 108.8-48.7 108.8-108.8s-48.7-108.8-108.8-108.8-108.8 48.7-108.8 108.8 48.7 108.8 108.8 108.8zm-38-65.8c1-3.6 2-7.2 3.1-10.7 1.3-4.1 2.4-4.6 6.2-2.7 6.5 3.4 13.3 5.2 20.5 6.1 4.6.6 9.2.1 13.4-1.8 8-3.5 9.3-12.8 2.5-18.3-2.3-1.9-4.9-3.3-7.6-4.5-7-3.1-14.3-5.4-21-9.4-10.7-6.4-17.6-15.3-16.8-28.3.9-14.8 9.3-24 22.8-28.9 5.6-2 5.6-2 5.7-7.8v-5.9c.1-4.4.9-5.2 5.2-5.3h4.1c9.3 0 9.3 0 9.4 9.3 0 6.6 0 6.6 6.6 7.7 5 .8 9.9 2.3 14.5 4.3 2.6 1.1 3.5 2.9 2.8 5.6-1.2 4-2.3 8.1-3.6 12.1-1.2 3.8-2.4 4.3-6.1 2.6-7.3-3.5-15-5-23-4.6-2.1.1-4.2.4-6.1 1.3-7 3-8.1 10.7-2.2 15.5 3 2.4 6.4 4.1 10 5.6 6.2 2.6 12.4 5 18.2 8.2 18.7 10.3 23.7 33.8 10.5 49.7-4.8 5.8-10.9 9.7-18.1 11.6-3.1.9-4.6 2.5-4.4 5.8.1 3.2 0 6.4 0 9.6 0 2.9-1.5 4.4-4.3 4.5-3.5.1-6.9.1-10.4 0-3-.1-4.5-1.8-4.5-4.7 0-2.3 0-4.7-.1-7-.1-5.2-.2-5.4-5.2-6.2-6.4-1-12.6-2.5-18.5-5.3-4.5-2.1-4.9-3.3-3.6-8.1z"/>
</symbol><symbol id="icon-dollar" viewBox="0 0 159 309">
    <title>
        Path
    </title>
    <path d="M143.849 242.861c-9.8 11.9-22.5 19.9-37.4 24-6.5 1.8-9.4 5.2-9.1 11.9.3 6.6 0 13.2-.1 19.9 0 5.9-3 9.1-8.8 9.2-7.1.2-14.3.2-21.4 0-6.2-.1-9.2-3.7-9.3-9.8-.1-4.8-.1-9.7-.1-14.5-.1-10.7-.4-11.1-10.7-12.7-13.1-2.1-26-5.1-38-10.9-9.4-4.6-10.4-6.9-7.7-16.8 2-7.4 4-14.7 6.3-22 2.7-8.5 4.9-9.5 12.7-5.5 13.3 6.9 27.4 10.8 42.2 12.6 9.5 1.2 18.9.2 27.7-3.6 16.5-7.2 19.1-26.3 5.1-37.8-4.7-3.9-10.1-6.8-15.8-9.3-14.4-6.3-29.5-11.2-43.2-19.4-22.1-13.3-36.2-31.4-34.5-58.4 1.9-30.5 19.1-49.5 47-59.6 11.5-4.2 11.6-4 11.6-16.1 0-4.1-.1-8.2.1-12.2.2-9.1 1.8-10.6 10.8-10.9 2.8-.1 5.6 0 8.4 0 19.3 0 19.3 0 19.3 19.2.1 13.6 0 13.7 13.6 15.8 10.4 1.6 20.3 4.7 29.9 8.9 5.3 2.3 7.3 6 5.7 11.6-2.4 8.3-4.7 16.7-7.3 24.9-2.5 7.8-5 8.9-12.5 5.3-15-7.3-30.8-10.3-47.4-9.4-4.4.2-8.6.8-12.6 2.6-14.4 6.3-16.7 22.1-4.5 31.9 6.2 4.9 13.2 8.5 20.6 11.6 12.7 5.3 25.5 10.3 37.6 17 38.5 21.4 48.8 69.6 21.8 102.5z" fill-rule="evenodd"/>
</symbol><symbol id="icon-down-arrow" viewBox="0 0 116.1 60.9">
    <path d="M114.9 1.2c-1.6-1.6-4.2-1.6-5.8 0l-51 51.1L7 1.2C5.4-.4 2.8-.4 1.2 1.2S-.4 5.4 1.2 7l53.9 53.9c.8.8 1.8 1.2 2.9 1.2 1 0 2.1-.4 2.9-1.2L114.8 7c1.7-1.6 1.7-4.2.1-5.8z"/>
</symbol><symbol id="icon-envelope" viewBox="0 0 511.6 402">
    <path d="M49.1 123.9c6.5 4.6 26 18.1 58.5 40.7s57.5 39.9 74.8 52.1c1.9 1.3 5.9 4.2 12.1 8.7 6.2 4.5 11.3 8.1 15.4 10.9 4.1 2.8 9 5.9 14.8 9.3 5.8 3.4 11.3 6 16.4 7.7 5.1 1.7 9.9 2.6 14.3 2.6h.6c4.4 0 9.1-.9 14.3-2.6 5.1-1.7 10.6-4.3 16.4-7.7 5.8-3.4 10.8-6.5 14.8-9.3 4.1-2.8 9.2-6.4 15.4-10.9 6.2-4.5 10.2-7.4 12.1-8.7 17.5-12.2 62.1-43.1 133.6-92.8 13.9-9.7 25.5-21.4 34.8-35.1 9.3-13.7 14-28.1 14-43.1 0-12.6-4.5-23.3-13.6-32.3C489 4.5 478.3 0 465.9 0H45.7C31 0 19.7 4.9 11.8 14.8 3.9 24.7 0 37.1 0 52c0 12 5.2 25 15.7 39 10.5 13.9 21.6 24.9 33.4 32.9z"/>
    <path d="M483.1 154.5c-62.4 42.3-109.8 75.1-142.2 98.5-10.8 8-19.6 14.2-26.4 18.7-6.8 4.5-15.7 9-27 13.7-11.2 4.7-21.7 7-31.4 7h-.6c-9.7 0-20.2-2.3-31.4-7s-20.2-9.2-27-13.7c-6.8-4.5-15.6-10.7-26.4-18.7-25.7-18.8-73-51.7-141.9-98.5C18 147.2 8.4 138.9 0 129.6v226.7c0 12.6 4.5 23.3 13.4 32.3 8.9 8.9 19.7 13.4 32.3 13.4H466c12.6 0 23.3-4.5 32.3-13.4 8.9-8.9 13.4-19.7 13.4-32.3V129.6c-8.3 9.1-17.8 17.4-28.6 24.9z"/>
</symbol><symbol id="icon-file" viewBox="0 0 784.7 957.6">
    <path d="M731.9 108.4h-28v687.9c0 45.7-37.2 82.9-82.9 82.9H111.7v25.5c0 29.2 23.7 52.9 52.9 52.9h567.2c29.2 0 52.9-23.7 52.9-52.9V161.3c0-29.2-23.6-52.9-52.8-52.9z"/>
    <path d="M337.3 849.2h283.6c29.2 0 52.9-23.7 52.9-52.9V52.9c0-29.2-23.7-52.9-52.9-52.9H243v17.5c.2 1.8.3 3.7.3 5.6V168c0 41.1-33.4 74.5-74.5 74.5H23.9c-1.5 0-3.1-.1-4.6-.2H.9v554c0 29.2 23.7 52.9 52.9 52.9h283.5zM348 669.4H163.1c-13.8 0-25-11.2-25-25s11.2-25 25-25h185c13.8 0 25 11.2 25 25s-11.3 25-25.1 25zm185-127.6H163.1c-13.8 0-25-11.2-25-25s11.2-25 25-25H533c13.8 0 25 11.2 25 25s-11.2 25-25 25zM163.1 356.3H533c13.8 0 25 11.2 25 25s-11.2 25-25 25H163.1c-13.8 0-25-11.2-25-25s11.2-25 25-25z"/>
    <path d="M23.9 212.5h145.3c24.2-.2 43.8-19.8 44-44V23.1c0-13.4-11-22.3-22.4-22.3-5.5 0-11 2-15.6 6.6L8.1 174.5c-14 14-4.1 38 15.8 38z"/>
</symbol><symbol id="icon-gym" viewBox="0 0 512 271.2">
    <path d="M30.2 31.5C13.5 31.5 0 45 0 61.7v147.8c0 16.6 13.5 30.2 30.2 30.2h20.3V31.5H30.2z"/>
    <path d="M417.2 0h-65.8c-16.6 0-30.2 13.5-30.2 30.2v87.3H190.9V30.2c0-16.6-13.5-30.2-30.2-30.2H94.8C78.2 0 64.7 13.5 64.7 30.2V241c0 16.6 13.5 30.2 30.2 30.2h65.8c16.6 0 30.2-13.5 30.2-30.2v-87.3h130.3V241c0 16.6 13.5 30.2 30.2 30.2h65.8c16.6 0 30.2-13.5 30.2-30.2V30.2C447.3 13.5 433.8 0 417.2 0z"/>
    <path d="M481.8 31.5h-20.3v208.2h20.3c16.6 0 30.2-13.5 30.2-30.2V61.7c0-16.7-13.5-30.2-30.2-30.2z"/>
</symbol><symbol id="icon-human-head-with-a-question-mark-inside" viewBox="0 0 137.7 173.3">
    <path d="M40.9 173.3h96.8s-28.1-22.6-27.5-47.3c.4-13.8 27.5-31.3 27.4-69.6-.1-19.3-18.8-51.3-50.6-55.3-31.7-4-55.5 3-65.8 22.5C10.8 43.2 10 60.4 10.8 63.5c.8 3.2 4.2 9.2 4.2 9.2S-1 97.2 0 101.2s12 6.2 12 6.2 1 2.8-1 8.2c-2 5.4 3.7 11.6 5.4 13.8 1.7 2.2-2.4 9-1 12.8 1.4 3.8 8 8.4 15.6 7.4s17.3-2.8 20.7-3.4c7.6 17.9-10.8 27.1-10.8 27.1zm41.4-58.5c-7.3 0-12.2-5.3-12.2-12.5 0-7.3 5.1-12.5 12.2-12.5 7.4 0 12.2 5.2 12.3 12.5 0 7.2-4.9 12.5-12.3 12.5zm1.9-95.4c18.1 0 26.3 10 26.3 21.4 0 10.4-6.4 17.3-11.6 23-5.1 5.6-7.1 11-7 17.1v2.5H73.6l-.1-3.6c-.4-7 1.9-14.1 8.1-21.5 4.4-5.2 7.9-9.6 7.9-14.3 0-4.8-3.1-8-10-8.2-4.5 0-10 1.6-13.6 4.1L61.3 25c4.9-2.9 13.1-5.6 22.9-5.6z"/>
</symbol><symbol id="icon-icon" viewBox="0 0 15.5 27.4">
    <path d="M13.5 0H2C.9 0 0 .9 0 2v23.4c0 1.1.9 2 2 2h11.5c1.1 0 2-.9 2-2V2c0-1.1-.9-2-2-2zM4.9 1.2h5.7c.1 0 .3.2.3.5s-.1.5-.3.5H4.9c-.1 0-.2-.2-.2-.5s.1-.5.2-.5zm2.9 24.3c-.7 0-1.3-.6-1.3-1.3s.6-1.3 1.3-1.3c.7 0 1.3.6 1.3 1.3s-.6 1.3-1.3 1.3zm6.2-4.4H1.5V3.4H14v17.7z"/>
</symbol><symbol id="icon-justice" viewBox="0 0 264 231">
    <path d="M254.8 99h-5.3s-28-53.7-28.3-54.1c-1.4-2.3-3.9-3.9-6.9-3.9H148V10c0-5.5-4.1-10-9.7-10h-13C119.8 0 115 4.5 115 10v31H50.3c-2.9 0-5.5 1.6-6.9 3.9-.2.4-28.2 54.1-28.2 54.1h-4.3C5.3 99 0 103 0 108.5v6.5c0 27.3 22.2 49.5 49.5 49.5S99 142.3 99 115v-6.5c0-5.5-3.7-9.5-9.2-9.5h-5.3L62.6 57H115v141H59.3c-5.5 0-10.3 4.5-10.3 10v13c0 5.5 4.8 10 10.3 10h145c5.5 0 9.7-4.5 9.7-10v-13c0-5.5-4.1-10-9.7-10H148V57h54l-21.9 42h-4.3c-5.5 0-10.8 4-10.8 9.5v6.5c0 27.3 22.2 49.5 49.5 49.5S264 142.3 264 115v-6.5c0-5.5-3.7-9.5-9.2-9.5zM66.5 99H33.2l16.6-31.9L66.5 99zm131.7 0l16.6-31.9L231.5 99h-33.3z"/>
</symbol><symbol id="icon-male-silhouette-talking" viewBox="0 0 475.7 425.1">
    <path d="M333.9 0c-57.8 0-107.6 30.5-129.7 74.1-4.3-.6-8.5-.7-11.2-.7-9.5 0-34.4 1.7-59.3 17.2-13.6 8.5-20 20.6-20.7 39.2v31.4c-.2.1-.4.1-.6.2-3.2 1.5-4.9.8-5.3 7.6-.5 7.7.9 28.2 9.2 33.3 1.3 1.3 2.1 4.8 2.6 8.7.9 7.3 2 15.6 6.1 21 9.4 12.3 6.9 31.4 6.7 32.9 0 0-.1 0-.1.1-5.8 2.6-7.3 7.6-8.4 11.3l-.6 1.8c-1.5 4.8-2.9 9.4-4.9 13.7-.3.4-1.4 1.3-2.9 1.8l-4.3 1.6c-27 10.3-54.9 21-80.8 35.4C5.4 344 .2 417.3 0 419.7c-.1 1.4.3 2.8 1.3 3.8s2.3 1.6 3.7 1.6h357.4c1.4 0 2.7-.6 3.7-1.6s1.4-2.4 1.3-3.8c-.2-2.3-5.4-75.6-29.8-89.2-25.9-14.3-53.8-25-80.8-35.4l-4.3-1.6c-1.5-.6-2.6-1.4-2.9-1.8-1.9-4.3-3.4-8.9-4.9-13.7l-.6-1.8c-1.1-3.7-2.6-8.7-8.4-11.3-.1 0-.1-.1-.1-.1-.2-1.5-2.7-20.6 6.7-32.9 2-2.6 3.2-5.8 4.1-9.3 19.2 13.2 42.5 22.3 67.9 25.3v45.8c0 4.8 2.9 9.2 7.4 11 1.4.6 2.9.8 4.4.8 3.2 0 6.3-1.3 8.6-3.7l62.1-65.6c22.8-9.9 42.1-25 56-43.7 15-20.2 22.9-43.7 22.9-67.9C475.7 55.9 412.1 0 333.9 0zm51.5 215.4c-1.5.6-2.9 1.6-4 2.8L338 264v-26.9c0-6.3-4.9-11.5-11.2-11.8-28-1.4-53.2-11.1-72.6-26.2 5.5-7.7 6.4-23.6 6-30.2-.4-6.8-2.1-6.1-5.3-7.6-.2-.1-.4-.2-.6-.2v-31.2c0-15.9-3.9-26.5-11.8-32.6-3.5-2.7-7.5-5.2-11.4-7.7-2.1-1.3-4.3-2.7-6.2-4 17.9-36.4 60-62 109.1-62 65.2 0 118.2 45.3 118.2 100.9-.1 38.4-26.3 74.1-66.8 90.9z"/>
    <circle cx="286" cy="123" r="14.9"/>
    <circle cx="333.9" cy="123" r="14.9"/>
    <circle cx="381.7" cy="123" r="14.9"/>
</symbol><symbol id="icon-maps-and-flags" viewBox="0 0 370.9 512">
    <path d="M185.4 0C83.2 0 0 83.2 0 185.4c0 126.9 165.9 313.2 173 321 6.6 7.4 18.2 7.4 24.8 0 7.1-7.9 173-194.1 173-321C370.9 83.2 287.7 0 185.4 0zm0 278.7c-51.4 0-93.3-41.9-93.3-93.3s41.9-93.3 93.3-93.3 93.3 41.9 93.3 93.3-41.8 93.3-93.3 93.3z"/>
</symbol><symbol id="icon-medal" viewBox="0 0 478.3 512">
    <path d="M476.7 431.9L418 306c-32.4 47.2-83 80.8-141.6 91l49.2 105.4c6.3 13.5 25.7 12.6 30.8-1.3l25.2-69.2 5.2-2.4 69.2 25.2c13.8 5 27-9.4 20.7-22.8z"/>
    <path d="M239.2 0C138 0 55.7 82.3 55.7 183.5S138 367 239.2 367s183.5-82.3 183.5-183.5S340.4 0 239.2 0zm89.3 170L296 201.7l7.7 44.8c2.4 13.7-12.1 24-24.2 17.6L239.2 243 199 264.1c-12.2 6.4-26.5-4-24.2-17.6l7.7-44.8-32.6-31.7c-9.9-9.6-4.4-26.5 9.2-28.5l45-6.5 20.1-40.8c6.1-12.4 23.8-12.4 29.9 0l20.1 40.8 45 6.5c13.7 2.1 19.2 18.9 9.3 28.5z"/>
    <path d="M60.3 306L1.6 431.9c-6.3 13.5 7 27.8 20.8 22.7l69.2-25.2 5.2 2.4L122 501c5.1 13.9 24.5 14.9 30.8 1.3L202 397c-58.6-10.2-109.3-43.8-141.7-91z"/>
</symbol><symbol id="icon-money-stacks-of-coins" viewBox="0 0 404.1 365">
    <path d="M195.6 80.1v28.4c0 14.7-43.8 26.7-97.8 26.7S0 123.3 0 108.5V80.1c0 14.7 43.8 26.7 97.8 26.7 54-.1 97.8-12 97.8-26.7zm0-5.4c0 14.7-43.8 26.7-97.8 26.7S0 89.4 0 74.7 43.8 48 97.8 48s97.8 12 97.8 26.7zM145 73.2l-85.9-5.9-2.9 5.3 3.2.4c4.4.6 9.9 2 7.3 6.6l-.8 1.4 15.9 1.1.8-1.4c1.1-2 1.4-3.7 1-5.1l57.9 3.9 3.5-6.3zm-47.2 69.3c-54 0-97.8-11.9-97.8-26.7v28.4c0 14.7 43.8 26.7 97.8 26.7s97.8-11.9 97.8-26.7v-28.4c0 14.7-43.8 26.7-97.8 26.7zm0 35.9c-54 0-97.8-11.9-97.8-26.7v28.5c0 14.7 43.8 26.7 97.8 26.7s97.8-11.9 97.8-26.7v-28.5c0 14.7-43.8 26.7-97.8 26.7zm0 35.3c-54 0-97.8-12-97.8-26.7v28.5c0 14.7 43.8 26.7 97.8 26.7s97.8-11.9 97.8-26.7V187c0 14.7-43.8 26.7-97.8 26.7zm0 34.8c-54 0-97.8-11.9-97.8-26.7v28.4C0 265 43.8 277 97.8 277s97.8-11.9 97.8-26.7v-28.4c0 14.7-43.8 26.6-97.8 26.6zm0 34.8c-54 0-97.8-11.9-97.8-26.7v28.5c0 14.7 43.8 26.7 97.8 26.7s97.8-11.9 97.8-26.7v-28.5c0 14.8-43.8 26.7-97.8 26.7zM209.1 82h.7v.7c15.5 2.8 34.1 4.5 54.2 4.5 54 0 97.8-11.9 97.8-26.7V32.1c0 14.7-43.8 26.7-97.8 26.7s-97.8-11.9-97.8-26.7v10.7c23.5 5.6 43.6 15.7 43.6 33.8 0 1.9-.3 3.7-.7 5.4zm-42.9-55.3C166.2 11.9 210 0 264 0s97.8 11.9 97.8 26.7c0 14.7-43.8 26.7-97.8 26.7-54-.1-97.8-12-97.8-26.7zm50.6 1.5l85.9 5.9 2.9-5.2-3.2-.4c-4.4-.6-9.9-2-7.3-6.5l.8-1.4-15.9-1.3-.8 1.4c-1.1 2-1.5 3.7-1 5.1l-57.9-4-3.5 6.4zm47.2 94.7c54 0 97.8-11.9 97.8-26.7V67.8c0 14.7-43.8 26.7-97.8 26.7-20 0-38.7-1.7-54.2-4.5v20.5c0 2.6-.4 5-1.2 7.3h1.2v.7c15.5 2.7 34.1 4.4 54.2 4.4zm-54.2 30.7v.7c15.5 2.8 34.1 4.5 54.2 4.5 54 0 97.8-11.9 97.8-26.7v-28.4c0 14.7-43.8 26.7-97.8 26.7-20 0-38.7-1.6-54.2-4.5v20.2c0 2.7-.5 5.1-1.3 7.5h1.3zm152 11.1V139c0 8.9-16 16.8-40.6 21.6 10.8.5 25.7 1.6 40.6 4.1zm-152 14c9.5-6.5 23.7-10.7 38.3-13.4-14-.6-27-2-38.3-4.1v17.5zm96.5 50.9c-54 0-97.8-11.9-97.8-26.7v28.5c0 14.7 43.8 26.7 97.8 26.7s97.8-11.9 97.8-26.7v-28.5c0 14.8-43.8 26.7-97.8 26.7zm0-58.7c54 0 97.8 11.9 97.8 26.7 0 14.7-43.8 26.7-97.8 26.7s-97.8-11.9-97.8-26.7c0-14.8 43.8-26.7 97.8-26.7zm14.2 25.9l-57.9-3.9-3.5 6.3 85.9 5.9 2.9-5.3-3.2-.4c-4.4-.6-9.9-2-7.3-6.6l.8-1.4-15.9-1.1-.8 1.4c-1.1 1.9-1.4 3.6-1 5.1zm-14.2 68.5c-54 0-97.8-11.9-97.8-26.7v28.5c0 14.7 43.8 26.7 97.8 26.7s97.8-11.9 97.8-26.7v-28.4c0 14.7-43.8 26.6-97.8 26.6zm0 35.9c-54 0-97.8-11.9-97.8-26.7V303c0 14.7 43.8 26.7 97.8 26.7s97.8-11.9 97.8-26.7v-28.4c0 14.7-43.8 26.6-97.8 26.6zm0 35.4c-54 0-97.8-11.9-97.8-26.7v28.5c0 14.7 43.8 26.7 97.8 26.7s97.8-11.9 97.8-26.7v-28.5c0 14.7-43.8 26.7-97.8 26.7z"/>
</symbol><symbol id="icon-percentage" viewBox="0 0 488.027 488.027">
    <circle cx="179.163" cy="202.563" r="20.4"/>
    <circle cx="308.763" cy="285.363" r="20.4"/>
    <path d="M476.963 270.963l-7.4-10.1c-8-11-8.2-25.9-.3-37.1l7.2-10.2c11-15.6 5.9-37.3-11-46.4l-11-5.9c-12-6.4-18.6-19.8-16.3-33.3l2.1-12.3c3.2-18.8-10.9-36.2-30-37l-12.5-.5c-13.6-.6-25.4-9.8-29.2-22.9l-3.5-12c-5.3-18.4-25.5-27.9-43.1-20.3l-11.5 4.9c-12.5 5.4-27.1 2.2-36.2-8l-8.3-9.3c-12.7-14.2-35-14.1-47.6.4l-8.2 9.4c-9 10.3-23.5 13.7-36.1 8.5l-11.6-4.8c-17.7-7.3-37.7 2.6-42.8 21l-3.3 12.1c-3.6 13.2-15.2 22.6-28.8 23.3l-12.5.7c-19.1 1.1-32.9 18.7-29.4 37.5l2.3 12.3c2.5 13.4-3.9 26.9-15.8 33.5l-10.9 6.1c-16.7 9.3-21.5 31.1-10.2 46.5l7.4 10.1c8 11 8.2 25.9.3 37.1l-7.2 10.2c-11 15.6-5.9 37.3 11 46.4l11 5.9c12 6.4 18.6 19.8 16.3 33.3l-2.1 12.3c-3.2 18.8 10.9 36.2 30 37l12.5.5c13.6.6 25.4 9.8 29.2 22.9l3.5 12c5.3 18.4 25.5 27.9 43.1 20.3l11.5-4.9c12.5-5.4 27.1-2.2 36.2 8l8.3 9.3c12.8 14.2 35.1 14.1 47.6-.4l8.2-9.4c9-10.3 23.5-13.7 36.1-8.5l11.6 4.8c17.7 7.3 37.7-2.6 42.8-21l3.3-12.1c3.6-13.2 15.2-22.6 28.8-23.3l12.5-.7c19.1-1.1 32.9-18.7 29.4-37.5l-2.3-12.3c-2.5-13.4 3.9-26.9 15.8-33.5l10.9-6.1c16.7-9.2 21.5-31 10.2-46.5zm-347.1-68.4c0-27.2 22-49.2 49.2-49.2s49.2 22 49.2 49.2-22 49.2-49.2 49.2-49.2-22.1-49.2-49.2zm58.7 126.9c-4.2 5.1-11.8 5.8-16.9 1.6-5.1-4.2-5.8-11.8-1.6-16.9l129.1-155.5c4.2-5.1 11.8-5.8 16.9-1.6s5.8 11.8 1.6 16.9l-129.1 155.5zm120.2 5.1c-27.2 0-49.2-22-49.2-49.2s22-49.2 49.2-49.2 49.2 22 49.2 49.2-22 49.2-49.2 49.2z"/>
</symbol><symbol id="icon-pie-chart-outline" viewBox="0 0 50.062 50.063">
    <path d="M22.599 4.781C10.117 4.779-.001 14.897 0 27.379-.001 39.862 10.117 49.981 22.599 49.98c12.481.001 22.601-10.117 22.599-22.601H22.599V4.781z"/>
    <path d="M27.463.083v22.6h22.6C50.062 10.2 39.945.081 27.463.083z"/>
</symbol><symbol id="icon-rent-a-car-sign" viewBox="0 0 39.4 45.9">
    <path d="M38.6 25.9l-3.5-.6v-1.6c0-3.9-2.7-6.8-6.3-6.8H11.1c-3.7 0-6.8 3-6.8 6.8v1.6l-3.6.6c-.4.1-.7.4-.7.9v.9c0 .5.4.9.9.9h1c-.2.4-.4.9-.4 1.4v7.7c0 1.2.8 2.2 1.9 2.5V45c0 .5.4.9.9.9h4.2c.5 0 .9-.4.9-.9v-4.8h20.7V45c0 .5.4.9.9.9h4.2c.5 0 .9-.4.9-.9v-5c1-.4 1.6-1.3 1.6-2.4v-7.7c0-.5-.1-.9-.4-1.4h.8c.5 0 .9-.4.9-.9v-.9c.4-.4 0-.8-.4-.8zM7.8 23.7c0-1.8 1.5-3.3 3.3-3.3h5.2V22c0 .3.2.5.5.5h5.4c.3 0 .5-.2.5-.5v-1.5-.1h6c2 0 2.9 1.7 2.9 3.3v2.7H7.8v-2.7zm1.7 12.2c-1 0-1.8-.8-1.8-1.8s.8-1.8 1.8-1.8 1.8.8 1.8 1.8-.8 1.8-1.8 1.8zm15.5-.1H14.5c-1 0-1.7-.8-1.7-1.7 0-1 .8-1.7 1.7-1.7H25c1 0 1.7.8 1.7 1.7.1.9-.7 1.7-1.7 1.7zm3.2-1.7c0-1 .8-1.8 1.8-1.8s1.8.8 1.8 1.8-.8 1.8-1.8 1.8-1.8-.8-1.8-1.8z"/>
    <path d="M30.2 0c-2.6 0-4.9 1.5-6.1 3.7h-1.6c-.2 0-.4 0-.5.1L20 5c-.2.2-.5.1-.8 0l-1.8-1.2c-.2-.2-.5-.2-.8 0L14.8 5c-.2.2-.6.2-.8 0l-1.9-1.1c-.3-.2-.6-.2-.8 0l-1.3.7c-.2.1-.5.1-.7 0L8 3.8c-.2-.1-.3-.1-.5-.1H5.6C3.8 3.7 2.2 5.1 2.2 7c0 1.7 1.4 3 3.2 3h18.7c1.2 2.2 3.5 3.7 6.1 3.7 3.8 0 6.9-3 6.9-6.9C37.1 3 34 0 30.2 0zm1.9 9.1c-1.2 0-2.2-1-2.2-2.2 0-1.2 1-2.2 2.2-2.2s2.2 1 2.2 2.2-1 2.2-2.2 2.2z"/>
</symbol><symbol id="icon-speech-bubble" viewBox="0 0 482.874 482.874">
    <path d="M412.149 70.761c-94.3-94.3-247.1-94.3-341.4 0-90.8 90.7-94.2 235.8-10.2 330.6l2.5 2c-9.1 19.7-24.8 44-49.7 56.2-8.2 4-6.3 16.3 2.7 17.7 27.2 4.3 66.3-.5 102.6-28l.5.4c92.5 54.4 213.6 41.9 293-37.5 94.3-94.3 94.3-247.1 0-341.4zm-106.3 259.1c-9.8 11.9-22.5 19.9-37.4 24-6.5 1.8-9.4 5.2-9.1 11.9.3 6.6 0 13.2-.1 19.9 0 5.9-3 9.1-8.8 9.2-7.1.2-14.3.2-21.4 0-6.2-.1-9.2-3.7-9.3-9.8-.1-4.8-.1-9.7-.1-14.5-.1-10.7-.4-11.1-10.7-12.7-13.1-2.1-26-5.1-38-10.9-9.4-4.6-10.4-6.9-7.7-16.8 2-7.4 4-14.7 6.3-22 2.7-8.5 4.9-9.5 12.7-5.5 13.3 6.9 27.4 10.8 42.2 12.6 9.5 1.2 18.9.2 27.7-3.6 16.5-7.2 19.1-26.3 5.1-37.8-4.7-3.9-10.1-6.8-15.8-9.3-14.4-6.3-29.5-11.2-43.2-19.4-22.1-13.3-36.2-31.4-34.5-58.4 1.9-30.5 19.1-49.5 47-59.6 11.5-4.2 11.6-4 11.6-16.1 0-4.1-.1-8.2.1-12.2.2-9.1 1.8-10.6 10.8-10.9 2.8-.1 5.6 0 8.4 0 19.3 0 19.3 0 19.3 19.2.1 13.6 0 13.7 13.6 15.8 10.4 1.6 20.3 4.7 29.9 8.9 5.3 2.3 7.3 6 5.7 11.6-2.4 8.3-4.7 16.7-7.3 24.9-2.5 7.8-5 8.9-12.5 5.3-15-7.3-30.8-10.3-47.4-9.4-4.4.2-8.6.8-12.6 2.6-14.4 6.3-16.7 22.1-4.5 31.9 6.2 4.9 13.2 8.5 20.6 11.6 12.7 5.3 25.5 10.3 37.6 17 38.5 21.4 48.8 69.6 21.8 102.5z"/>
</symbol><symbol id="icon-star" viewBox="0 0 190 183">
    <title>
        Path
    </title>
    <path d="M184.5 86L152 117.7l7.7 44.8c2.4 13.7-12.1 24-24.2 17.6L95.2 159 55 180.1c-12.2 6.4-26.5-4-24.2-17.6l7.7-44.8L5.9 86c-9.9-9.6-4.4-26.5 9.2-28.5l45-6.5 20.1-40.8c6.1-12.4 23.8-12.4 29.9 0L130.2 51l45 6.5c13.7 2.1 19.2 18.9 9.3 28.5z" fill-rule="evenodd"/>
</symbol><symbol id="icon-target" viewBox="0 0 953 953">
    <path d="M430.589 953c236.6 0 428.401-191.801 428.401-428.4 0-72.799-18.102-141.299-50.102-201.299-3.5.5-7.1.7-10.6.7-2 0-4.1-.1-6.199-.2l-54.5-4.2-39.201 39.2c29.9 48.2 47.201 105 47.201 165.799 0 173.9-141 314.9-314.901 314.9-173.899 0-315-141-315-314.9 0-173.899 141-314.899 314.9-314.899 60.901 0 117.7 17.3 165.799 47.2l35.5-35.5-4.799-62.5c-.4-5-.301-10 .199-14.9-58.9-30.5-125.799-47.8-196.799-47.8-236.5 0-428.3 191.8-428.3 428.399S193.989 953 430.589 953z"/>
    <path d="M430.589 413.9c2.8 0 5.6.101 8.4.3l79.1-79.1 1.699-1.7c-27.1-12.7-57.299-19.8-89.2-19.8-116.5 0-210.9 94.4-210.9 210.9s94.4 211 210.9 211 210.901-94.4 210.901-210.9c0-31.9-7.102-62.099-19.801-89.2l-1.699 1.7-79.102 79.099c.201 2.801.301 5.602.301 8.4 0 61.1-49.5 110.701-110.7 110.701s-110.601-49.602-110.601-110.701C319.889 463.5 369.489 413.9 430.589 413.9z"/>
    <path d="M872.089 142.6l25.4-25.4c11.6-11.6 11.6-30.3 0-41.9l-17.602-17.7c-5.799-5.8-13.398-8.7-20.898-8.7s-15.201 2.9-20.9 8.7l-29.1 29.1-6-77.5c-.4-5.7-5.102-9.2-10-9.2-2.5 0-5 .9-7 2.9l-114.5 114.5c-10.301 10.3-15.602 24.6-14.5 39.2l.299 4.5 5.5 71.7-41.4 41.4-74.5 74.5-1.699 1.7-72.1 72.101-32 32c-4.2 4.199-6.8 9.8-7.2 15.699l-2 25.101c-1.2 14.6 10.4 27 24.9 27h1.3l26.5-1.301c6.199-.301 12.1-2.9 16.4-7.301l31.7-31.699 72.1-72.1 1.701-1.7 74.5-74.5 45-45 65.398 5 2.9.2c1.301.1 2.6.1 3.801.1 13.199 0 25.9-5.2 35.4-14.6L947.888 165c6-6 2.201-16.4-6.299-17l-69.5-5.4z"/>
</symbol><symbol id="icon-time-control-tool" viewBox="0 0 612 705.3">
    <path d="M348.6 118V91.6h64.9V86c0-47.5-38.5-86-86.1-86h-62.6c-47.5 0-86.1 38.5-86.1 86.1v5.5H245v26.2C105.9 142 0 263.1 0 409.2c0 163.6 132.6 296.1 296.1 296.1 163.5 0 296.1-132.5 296.1-296.1 0-145.6-105.2-266.4-243.6-291.2zm-52.5 519.5c-125.9 0-228.3-102.4-228.3-228.4 0-125.9 102.4-228.3 228.3-228.3s228.3 102.4 228.3 228.3c0 126-102.4 228.4-228.3 228.4z"/>
    <path d="M605.3 153.3l-48-48c-4.3-4.3-10.1-6.7-16.1-6.7s-11.8 2.4-16.1 6.7l-38.9 38.9 80.2 80.2 38.9-38.9c8.9-8.9 8.9-23.3 0-32.2z"/>
    <path d="M295.1 195.2c-117.7.5-213 96.1-213 213.9 0 118.2 95.8 214 214 214s214-95.8 214-214h-215V195.2z"/>
</symbol><symbol id="icon-trophy" viewBox="0 0 511.999 511.999">
    <path d="M466.45 49.374a37.048 37.048 0 0 0-28.267-13.071H402.41v-11.19C402.41 11.266 391.143 0 377.297 0H134.705c-13.848 0-25.112 11.266-25.112 25.112v11.19H73.816a37.05 37.05 0 0 0-28.267 13.071c-6.992 8.221-10.014 19.019-8.289 29.624 9.4 57.8 45.775 108.863 97.4 136.872 4.717 11.341 10.059 22.083 16.008 32.091 19.002 31.975 42.625 54.073 68.627 64.76 2.635 26.644-15.094 51.885-41.794 57.9-.057.013-.097.033-.153.046-5.211 1.245-9.09 5.921-9.09 11.513v54.363h-21.986c-19.602 0-35.549 15.947-35.549 35.549v28.058c0 6.545 5.305 11.85 11.85 11.85H390.56c6.545 0 11.85-5.305 11.85-11.85v-28.058c0-19.602-15.947-35.549-35.549-35.549h-21.988V382.18c0-5.603-3.893-10.286-9.118-11.52-.049-.012-.096-.028-.145-.04-26.902-6.055-44.664-31.55-41.752-58.394 25.548-10.86 48.757-32.761 67.479-64.264 5.949-10.009 11.29-20.752 16.008-32.095 51.622-28.01 87.995-79.072 97.395-136.87 1.725-10.605-1.297-21.402-8.29-29.623zM60.652 75.192c-.616-3.787.431-7.504 2.949-10.466A13.388 13.388 0 0 1 73.815 60h35.777v21.802c0 34.186 4.363 67.3 12.632 97.583-32.496-25.679-54.87-62.982-61.572-104.193zm306.209 385.051c6.534 0 11.85 5.316 11.85 11.85v16.208H134.422v-16.208c0-6.534 5.316-11.85 11.85-11.85h220.589zm-45.688-66.213v42.513H191.96V394.03h129.213zm-98.136-23.699a78.449 78.449 0 0 0 8.002-10.46c7.897-12.339 12.042-26.357 12.228-40.674 4.209.573 8.457.88 12.741.88a94.34 94.34 0 0 0 13.852-1.036c.27 19.239 7.758 37.45 20.349 51.289h-67.172zM378.709 81.803c0 58.379-13.406 113.089-37.747 154.049-23.192 39.03-53.364 60.525-84.956 60.525-31.597 0-61.771-21.494-84.966-60.523-24.342-40.961-37.748-95.671-37.748-154.049V25.112c0-.78.634-1.413 1.412-1.413h242.591c.78 0 1.414.634 1.414 1.413v56.691zm72.639-6.611c-6.702 41.208-29.074 78.51-61.569 104.191 8.268-30.283 12.631-63.395 12.631-97.58V60.001h35.773c3.938 0 7.66 1.723 10.214 4.726 2.518 2.961 3.566 6.678 2.951 10.465z"/>
    <path d="M327.941 121.658a11.857 11.857 0 0 0-9.566-8.064l-35.758-5.196-15.991-32.402a11.852 11.852 0 0 0-21.252 0l-15.991 32.402-35.758 5.196a11.849 11.849 0 0 0-6.567 20.213l25.875 25.221-6.109 35.613a11.848 11.848 0 0 0 17.193 12.492L256 190.32l31.982 16.813a11.843 11.843 0 0 0 12.478-.903 11.848 11.848 0 0 0 4.714-11.59l-6.109-35.613 25.875-25.221a11.849 11.849 0 0 0 3.001-12.148zm-49.877 24.747a11.847 11.847 0 0 0-3.408 10.489l3.102 18.09-16.245-8.541a11.86 11.86 0 0 0-11.028 0l-16.245 8.541 3.102-18.09a11.849 11.849 0 0 0-3.408-10.489l-13.141-12.81 18.162-2.64a11.849 11.849 0 0 0 8.922-6.482L256 108.015l8.122 16.458a11.851 11.851 0 0 0 8.922 6.482l18.162 2.64-13.142 12.81z"/>
</symbol></svg>