<?xml version="1.0" encoding="utf-8"?>
<!-- Generator: Adobe Illustrator 21.0.2, SVG Export Plug-In . SVG Version: 6.00 Build 0)  -->
<svg version="1.1" id="Capa_1" xmlns="http://www.w3.org/2000/svg" xmlns:xlink="http://www.w3.org/1999/xlink" x="0px" y="0px"
	 viewBox="0 0 30.5 31.1" style="enable-background:new 0 0 30.5 31.1;" xml:space="preserve">
<g>
	<g>
		<path d="M15.3,0C6.9,0,0,6.9,0,15.3c0,7.3,5.1,13.4,11.9,14.9c-0.8-0.8-1.3-1.8-1.5-2.9c-4.7-1.9-8.1-6.6-8.1-12
			c0-5.2,3.1-9.8,7.6-11.8c-0.2,1,0.6,2.2,1.4,3.2c0.8,0.9,0.4,1.7-0.2,2.2C11,9,10.9,9.3,11,9.5c0.1,0.2,0.3,0.4,0.5,0.4
			C19.3,10,21.2,5.6,21.7,4c3.9,2.2,6.6,6.5,6.6,11.3c0,5.1-3,9.6-7.3,11.7c-0.1,1.1-0.6,2.2-1.4,3c6.3-1.9,11-7.7,11-14.7
			C30.5,6.9,23.7,0,15.3,0z"/>
		<circle cx="11.2" cy="14.9" r="1.7"/>
		<circle cx="19.2" cy="14.9" r="1.7"/>
		<path d="M10.5,24.7c0.4-1.2,1.2-2.3,2.3-2.9c0.1-1.4,1.2-2.5,2.7-2.5c1.4,0,2.5,1,2.6,2.4c1.2,0.7,2.1,1.8,2.5,3.1
			c0.7-0.7,1.1-1.6,1.1-2.5c0-2.5-2.8-4.4-6.2-4.4c-3.4,0-6.2,2-6.2,4.4C9.5,23.1,9.9,24,10.5,24.7z"/>
		<path d="M16.2,24.5c-0.2-0.1-0.4-0.1-0.6-0.1c-0.2,0-0.4,0-0.6,0.1c0.2,0,0.1,0.1,0,0c-0.7,0.3-1.2,1-1.2,1.8c0,0,0,0.1,0,0.1
			c0.6,0.1,1.2,0.2,1.9,0.2c0.6,0,1.3-0.1,1.9-0.2c0,0,0-0.1,0-0.1C17.5,25.5,17,24.8,16.2,24.5z"/>
		<path d="M15.6,20.1c-1,0-1.8,0.6-2.1,1.4c0.7-0.3,1.4-0.5,2.2-0.5c0.7,0,1.4,0.1,2,0.4C17.3,20.6,16.5,20.1,15.6,20.1z"/>
		<path d="M15.6,21.6c-2.6,0-4.8,2.1-4.8,4.8c0,2.6,2.1,4.8,4.8,4.8c2.6,0,4.8-2.1,4.8-4.8C20.4,23.7,18.2,21.6,15.6,21.6z
			 M15.6,28.8c-1.4,0-2.5-1.1-2.5-2.5s1.1-2.5,2.5-2.5c1.4,0,2.5,1.1,2.5,2.5S17,28.8,15.6,28.8z"/>
	</g>
</g>
</svg>
