<?xml version="1.0" encoding="UTF-8"?>
<svg width="159px" height="309px" viewBox="0 0 159 309" version="1.1" xmlns="http://www.w3.org/2000/svg" xmlns:xlink="http://www.w3.org/1999/xlink">
    <!-- Generator: Sketch 46.2 (44496) - http://www.bohemiancoding.com/sketch -->
    <title>Path</title>
    <desc>Created with Sketch.</desc>
    <defs></defs>
    <g id="Page-1" stroke="none" stroke-width="1" fill="none" fill-rule="evenodd">
        <path d="M143.849,242.861 C134.049,254.761 121.349,262.761 106.449,266.861 C99.949,268.661 97.049,272.061 97.349,278.761 C97.649,285.361 97.349,291.961 97.249,298.661 C97.249,304.561 94.249,307.761 88.449,307.861 C81.349,308.061 74.149,308.061 67.049,307.861 C60.849,307.761 57.849,304.161 57.749,298.061 C57.649,293.261 57.649,288.361 57.649,283.561 C57.549,272.861 57.249,272.461 46.949,270.861 C33.849,268.761 20.949,265.761 8.949,259.961 C-0.451,255.361 -1.451,253.061 1.249,243.161 C3.249,235.761 5.249,228.461 7.549,221.161 C10.249,212.661 12.449,211.661 20.249,215.661 C33.549,222.561 47.649,226.461 62.449,228.261 C71.949,229.461 81.349,228.461 90.149,224.661 C106.649,217.461 109.249,198.361 95.249,186.861 C90.549,182.961 85.149,180.061 79.449,177.561 C65.049,171.261 49.949,166.361 36.249,158.161 C14.149,144.861 0.049,126.761 1.749,99.761 C3.649,69.261 20.849,50.261 48.749,40.161 C60.249,35.961 60.349,36.161 60.349,24.061 C60.349,19.961 60.249,15.861 60.449,11.861 C60.649,2.761 62.249,1.261 71.249,0.961 C74.049,0.861 76.849,0.961 79.649,0.961 C98.949,0.961 98.949,0.961 98.949,20.161 C99.049,33.761 98.949,33.861 112.549,35.961 C122.949,37.561 132.849,40.661 142.449,44.861 C147.749,47.161 149.749,50.861 148.149,56.461 C145.749,64.761 143.449,73.161 140.849,81.361 C138.349,89.161 135.849,90.261 128.349,86.661 C113.349,79.361 97.549,76.361 80.949,77.261 C76.549,77.461 72.349,78.061 68.349,79.861 C53.949,86.161 51.649,101.961 63.849,111.761 C70.049,116.661 77.049,120.261 84.449,123.361 C97.149,128.661 109.949,133.661 122.049,140.361 C160.549,161.761 170.849,209.961 143.849,242.861 Z" id="Path" fill="#000000"></path>
    </g>
</svg>