<?xml version="1.0" encoding="utf-8"?>
<!-- Generator: Adobe Illustrator 21.0.2, SVG Export Plug-In . SVG Version: 6.00 Build 0)  -->
<svg version="1.1" id="Capa_1" xmlns="http://www.w3.org/2000/svg" xmlns:xlink="http://www.w3.org/1999/xlink" x="0px" y="0px"
	 viewBox="0 0 784.7 957.6" style="enable-background:new 0 0 784.7 957.6;" xml:space="preserve">
<g>
	<path d="M731.9,108.4h-28v687.9c0,45.7-37.2,82.9-82.9,82.9H337.3H111.7v25.5c0,29.2,23.7,52.9,52.9,52.9h283.6h283.6
		c29.2,0,52.9-23.7,52.9-52.9V161.3C784.7,132.1,761.1,108.4,731.9,108.4z"/>
	<path d="M337.3,849.2h283.6c29.2,0,52.9-23.7,52.9-52.9V108.4V52.9c0-29.2-23.7-52.9-52.9-52.9H337.3H243v17.5
		c0.2,1.8,0.3,3.7,0.3,5.6v115.3V168c0,41.1-33.4,74.5-74.5,74.5h-29.6H23.9c-1.5,0-3.1-0.1-4.6-0.2H0.9v554
		c0,29.2,23.7,52.9,52.9,52.9h58H337.3L337.3,849.2z M348,669.4H163.1c-13.8,0-25-11.2-25-25c0-13.8,11.2-25,25-25h185
		c13.8,0,25,11.2,25,25C373.1,658.2,361.8,669.4,348,669.4z M533,541.8H163.1c-13.8,0-25-11.2-25-25c0-13.8,11.2-25,25-25H533
		c13.8,0,25,11.2,25,25C558,530.6,546.8,541.8,533,541.8z M163.1,356.3H533c13.8,0,25,11.2,25,25s-11.2,25-25,25H163.1
		c-13.8,0-25-11.2-25-25S149.3,356.3,163.1,356.3z"/>
	<path d="M23.9,212.5h144.9c0.1,0,0.3,0,0.4,0c24.2-0.2,43.8-19.8,44-44c0-0.1,0-0.3,0-0.4v-145c0-13.4-11-22.3-22.4-22.3
		c-5.5,0-11,2-15.6,6.6L8.1,174.5C-5.9,188.5,4,212.5,23.9,212.5z"/>
</g>
</svg>
