<?xml version="1.0" encoding="utf-8"?>
<!-- Generator: Adobe Illustrator 21.0.2, SVG Export Plug-In . SVG Version: 6.00 Build 0)  -->
<svg version="1.1" id="Layer_1" xmlns="http://www.w3.org/2000/svg" xmlns:xlink="http://www.w3.org/1999/xlink" x="0px" y="0px"
	 viewBox="0 0 512 271.2" style="enable-background:new 0 0 512 271.2;" xml:space="preserve">
<g>
	<g>
		<path d="M30.2,31.5C13.5,31.5,0,45,0,61.7v147.8c0,16.6,13.5,30.2,30.2,30.2h20.3V31.5H30.2z"/>
	</g>
</g>
<g>
	<g>
		<path d="M417.2,0h-65.8c-16.6,0-30.2,13.5-30.2,30.2v87.3H190.9V30.2c0-16.6-13.5-30.2-30.2-30.2H94.8C78.2,0,64.7,13.5,64.7,30.2
			V241c0,16.6,13.5,30.2,30.2,30.2h65.8c16.6,0,30.2-13.5,30.2-30.2v-87.3h130.3V241c0,16.6,13.5,30.2,30.2,30.2h65.8
			c16.6,0,30.2-13.5,30.2-30.2V30.2C447.3,13.5,433.8,0,417.2,0z"/>
	</g>
</g>
<g>
	<g>
		<path d="M481.8,31.5h-20.3v208.2h20.3c16.6,0,30.2-13.5,30.2-30.2V61.7C512,45,498.5,31.5,481.8,31.5z"/>
	</g>
</g>
</svg>
