<?xml version="1.0" encoding="utf-8"?>
<!-- Generator: Adobe Illustrator 21.0.2, SVG Export Plug-In . SVG Version: 6.00 Build 0)  -->
<svg version="1.1" id="Capa_1" xmlns="http://www.w3.org/2000/svg" xmlns:xlink="http://www.w3.org/1999/xlink" x="0px" y="0px"
	 viewBox="0 0 137.7 173.3" style="enable-background:new 0 0 137.7 173.3;" xml:space="preserve">
<g>
	<path d="M40.9,173.3h96.8c0,0-28.1-22.6-27.5-47.3c0.4-13.8,27.5-31.3,27.4-69.6C137.5,37.1,118.8,5.1,87,1.1
		c-31.7-4-55.5,3-65.8,22.5C10.8,43.2,10,60.4,10.8,63.5c0.8,3.2,4.2,9.2,4.2,9.2s-16,24.5-15,28.5c1,4,12,6.2,12,6.2s1,2.8-1,8.2
		c-2,5.4,3.7,11.6,5.4,13.8c1.7,2.2-2.4,9-1,12.8c1.4,3.8,8,8.4,15.6,7.4c7.6-1,17.3-2.8,20.7-3.4C59.3,164.1,40.9,173.3,40.9,173.3
		z M82.3,114.8c-7.3,0-12.2-5.3-12.2-12.5c0-7.3,5.1-12.5,12.2-12.5c7.4,0,12.2,5.2,12.3,12.5C94.6,109.5,89.7,114.8,82.3,114.8z
		 M84.2,19.4c18.1,0,26.3,10,26.3,21.4c0,10.4-6.4,17.3-11.6,23c-5.1,5.6-7.1,11-7,17.1v2.5H73.6l-0.1-3.6c-0.4-7,1.9-14.1,8.1-21.5
		c4.4-5.2,7.9-9.6,7.9-14.3c0-4.8-3.1-8-10-8.2c-4.5,0-10,1.6-13.6,4.1L61.3,25C66.2,22.1,74.4,19.4,84.2,19.4z"/>
</g>
</svg>
