<?xml version="1.0" encoding="utf-8"?>
<!-- Generator: Adobe Illustrator 21.0.2, SVG Export Plug-In . SVG Version: 6.00 Build 0)  -->
<svg version="1.1" id="Слой_1" xmlns="http://www.w3.org/2000/svg" xmlns:xlink="http://www.w3.org/1999/xlink" x="0px" y="0px"
	 viewBox="0 0 264 231" style="enable-background:new 0 0 264 231;" xml:space="preserve">
<g>
	<path d="M254.8,99h-5.3c0,0-28-53.7-28.3-54.1c-1.4-2.3-3.9-3.9-6.9-3.9H148V10c0-5.5-4.1-10-9.7-10h-13C119.8,0,115,4.5,115,10v31
		H50.3c-2.9,0-5.5,1.6-6.9,3.9C43.2,45.3,15.2,99,15.2,99h-4.3C5.3,99,0,103,0,108.5v6.5c0,27.3,22.2,49.5,49.5,49.5
		S99,142.3,99,115v-6.5c0-5.5-3.7-9.5-9.2-9.5h-5.3L62.6,57H115v141H59.3c-5.5,0-10.3,4.5-10.3,10v13c0,5.5,4.8,10,10.3,10h145
		c5.5,0,9.7-4.5,9.7-10v-13c0-5.5-4.1-10-9.7-10H148V57h54l-21.9,42h-4.3c-5.5,0-10.8,4-10.8,9.5v6.5c0,27.3,22.2,49.5,49.5,49.5
		S264,142.3,264,115v-6.5C264,103,260.3,99,254.8,99L254.8,99z M66.5,99H33.2l16.6-31.9L66.5,99z M198.2,99l16.6-31.9L231.5,99
		H198.2z"/>
</g>
</svg>
