<?xml version="1.0" encoding="utf-8"?>
<!-- Generator: Adobe Illustrator 21.0.2, SVG Export Plug-In . SVG Version: 6.00 Build 0)  -->
<svg version="1.1" id="Capa_1" xmlns="http://www.w3.org/2000/svg" xmlns:xlink="http://www.w3.org/1999/xlink" x="0px" y="0px"
	 viewBox="0 0 475.7 425.1" style="enable-background:new 0 0 475.7 425.1;" xml:space="preserve">
<g>
	<g>
		<path d="M333.9,0c-57.8,0-107.6,30.5-129.7,74.1c-4.3-0.6-8.5-0.7-11.2-0.7c-9.5,0-34.4,1.7-59.3,17.2
			c-13.6,8.5-20,20.6-20.7,39.2c0,0.1,0,0.1,0,0.2l0,0l0,31.2l0,0c-0.2,0.1-0.4,0.1-0.6,0.2c-3.2,1.5-4.9,0.8-5.3,7.6
			c-0.5,7.7,0.9,28.2,9.2,33.3c1.3,1.3,2.1,4.8,2.6,8.7c0.9,7.3,2,15.6,6.1,21c9.4,12.3,6.9,31.4,6.7,32.9c0,0-0.1,0-0.1,0.1
			c-5.8,2.6-7.3,7.6-8.4,11.3l-0.6,1.8c-1.5,4.8-2.9,9.4-4.9,13.7c-0.3,0.4-1.4,1.3-2.9,1.8l-4.3,1.6c-27,10.3-54.9,21-80.8,35.4
			C5.4,344,0.2,417.3,0,419.7c-0.1,1.4,0.3,2.8,1.3,3.8s2.3,1.6,3.7,1.6h178.7h178.7c1.4,0,2.7-0.6,3.7-1.6s1.4-2.4,1.3-3.8
			c-0.2-2.3-5.4-75.6-29.8-89.2c-25.9-14.3-53.8-25-80.8-35.4l-4.3-1.6c-1.5-0.6-2.6-1.4-2.9-1.8c-1.9-4.3-3.4-8.9-4.9-13.7
			l-0.6-1.8c-1.1-3.7-2.6-8.7-8.4-11.3c-0.1,0-0.1-0.1-0.1-0.1c-0.2-1.5-2.7-20.6,6.7-32.9c2-2.6,3.2-5.8,4.1-9.3
			c19.2,13.2,42.5,22.3,67.9,25.3v45.8c0,4.8,2.9,9.2,7.4,11c1.4,0.6,2.9,0.8,4.4,0.8c3.2,0,6.3-1.3,8.6-3.7l62.1-65.6
			c22.8-9.9,42.1-25,56-43.7c15-20.2,22.9-43.7,22.9-67.9C475.7,55.9,412.1,0,333.9,0z M385.4,215.4c-1.5,0.6-2.9,1.6-4,2.8L338,264
			v-26.9c0-6.3-4.9-11.5-11.2-11.8c-28-1.4-53.2-11.1-72.6-26.2c5.5-7.7,6.4-23.6,6-30.2c-0.4-6.8-2.1-6.1-5.3-7.6
			c-0.2-0.1-0.4-0.2-0.6-0.2l0,0l0-31.2c0-15.9-3.9-26.5-11.8-32.6c-3.5-2.7-7.5-5.2-11.4-7.7c-2.1-1.3-4.3-2.7-6.2-4
			c17.9-36.4,60-62,109.1-62c65.2,0,118.2,45.3,118.2,100.9C452.1,162.9,425.9,198.6,385.4,215.4z"/>
		<circle cx="286" cy="123" r="14.9"/>
		<circle cx="333.9" cy="123" r="14.9"/>
		<circle cx="381.7" cy="123" r="14.9"/>
	</g>
</g>
</svg>
