<?xml version="1.0" encoding="utf-8"?>
<!-- Generator: Adobe Illustrator 21.0.2, SVG Export Plug-In . SVG Version: 6.00 Build 0)  -->
<svg version="1.1" id="Layer_1" xmlns="http://www.w3.org/2000/svg" xmlns:xlink="http://www.w3.org/1999/xlink" x="0px" y="0px"
	 viewBox="0 0 478.3 512" style="enable-background:new 0 0 478.3 512;" xml:space="preserve">
<g>
	<g>
		<path d="M476.7,431.9L418,306c-32.4,47.2-83,80.8-141.6,91l49.2,105.4c6.3,13.5,25.7,12.6,30.8-1.3l25.2-69.2l5.2-2.4l69.2,25.2
			C469.8,459.7,483,445.3,476.7,431.9z"/>
	</g>
</g>
<g>
	<g>
		<path d="M239.2,0C138,0,55.7,82.3,55.7,183.5S138,367,239.2,367c101.2,0,183.5-82.3,183.5-183.5S340.4,0,239.2,0z M328.5,170
			l-32.5,31.7l7.7,44.8c2.4,13.7-12.1,24-24.2,17.6L239.2,243l-40.2,21.1c-12.2,6.4-26.5-4-24.2-17.6l7.7-44.8L149.9,170
			c-9.9-9.6-4.4-26.5,9.2-28.5l45-6.5l20.1-40.8c6.1-12.4,23.8-12.4,29.9,0l20.1,40.8l45,6.5C332.9,143.6,338.4,160.4,328.5,170z"/>
	</g>
</g>
<g>
	<g>
		<path d="M60.3,306L1.6,431.9c-6.3,13.5,7,27.8,20.8,22.7l69.2-25.2l5.2,2.4L122,501c5.1,13.9,24.5,14.9,30.8,1.3L202,397
			C143.4,386.8,92.7,353.2,60.3,306z"/>
	</g>
</g>
</svg>
