<?xml version="1.0" encoding="utf-8"?>
<!-- Generator: Adobe Illustrator 21.0.2, SVG Export Plug-In . SVG Version: 6.00 Build 0)  -->
<svg version="1.1" id="Capa_1" xmlns="http://www.w3.org/2000/svg" xmlns:xlink="http://www.w3.org/1999/xlink" x="0px" y="0px"
	 viewBox="0 0 404.1 365" style="enable-background:new 0 0 404.1 365;" xml:space="preserve">
<g>
	<g id="Layer_8_2_">
		<path d="M195.6,80.1v28.4c0,14.7-43.8,26.7-97.8,26.7c-54,0-97.8-11.9-97.8-26.7V80.1c0,14.7,43.8,26.7,97.8,26.7
			C151.8,106.7,195.6,94.8,195.6,80.1z M195.6,74.7c0,14.7-43.8,26.7-97.8,26.7C43.8,101.4,0,89.4,0,74.7C0,60,43.8,48,97.8,48
			C151.8,48,195.6,60,195.6,74.7z M145,73.2l-85.9-5.9l-2.9,5.3l3.2,0.4c4.4,0.6,9.9,2,7.3,6.6L65.9,81l15.9,1.1l0.8-1.4
			c1.1-2,1.4-3.7,1-5.1l57.9,3.9L145,73.2z M97.8,142.5c-54,0-97.8-11.9-97.8-26.7v28.4c0,14.7,43.8,26.7,97.8,26.7
			c54,0,97.8-11.9,97.8-26.7v-28.4C195.6,130.5,151.8,142.5,97.8,142.5z M97.8,178.4c-54,0-97.8-11.9-97.8-26.7v28.5
			c0,14.7,43.8,26.7,97.8,26.7c54,0,97.8-11.9,97.8-26.7v-28.5C195.6,166.4,151.8,178.4,97.8,178.4z M97.8,213.7
			C43.8,213.7,0,201.7,0,187v28.5c0,14.7,43.8,26.7,97.8,26.7c54,0,97.8-11.9,97.8-26.7V187C195.6,201.7,151.8,213.7,97.8,213.7z
			 M97.8,248.5c-54,0-97.8-11.9-97.8-26.7v28.4C0,265,43.8,277,97.8,277c54,0,97.8-11.9,97.8-26.7v-28.4
			C195.6,236.6,151.8,248.5,97.8,248.5z M97.8,283.3c-54,0-97.8-11.9-97.8-26.7v28.5c0,14.7,43.8,26.7,97.8,26.7
			c54,0,97.8-11.9,97.8-26.7v-28.5C195.6,271.4,151.8,283.3,97.8,283.3z M209.1,82h0.7v0.7c15.5,2.8,34.1,4.5,54.2,4.5
			c54,0,97.8-11.9,97.8-26.7V32.1c0,14.7-43.8,26.7-97.8,26.7c-54,0-97.8-11.9-97.8-26.7v10.7c23.5,5.6,43.6,15.7,43.6,33.8
			C209.8,78.5,209.5,80.3,209.1,82z M166.2,26.7C166.2,11.9,210,0,264,0s97.8,11.9,97.8,26.7c0,14.7-43.8,26.7-97.8,26.7
			C210,53.3,166.2,41.4,166.2,26.7z M216.8,28.2l85.9,5.9l2.9-5.2l-3.2-0.4c-4.4-0.6-9.9-2-7.3-6.5l0.8-1.4L280,19.3l-0.8,1.4
			c-1.1,2-1.5,3.7-1,5.1l-57.9-4L216.8,28.2z M264,122.9c54,0,97.8-11.9,97.8-26.7V67.8c0,14.7-43.8,26.7-97.8,26.7
			c-20,0-38.7-1.7-54.2-4.5v20.5c0,2.6-0.4,5-1.2,7.3h1.2v0.7C225.3,121.2,243.9,122.9,264,122.9z M209.8,153.6v0.7
			c15.5,2.8,34.1,4.5,54.2,4.5c54,0,97.8-11.9,97.8-26.7v-28.4c0,14.7-43.8,26.7-97.8,26.7c-20,0-38.7-1.6-54.2-4.5v20.2
			c0,2.7-0.5,5.1-1.3,7.5L209.8,153.6L209.8,153.6z M361.8,164.7V139c0,8.9-16,16.8-40.6,21.6C332,161.1,346.9,162.2,361.8,164.7z
			 M209.8,178.7c9.5-6.5,23.7-10.7,38.3-13.4c-14-0.6-27-2-38.3-4.1V178.7z M306.3,229.6c-54,0-97.8-11.9-97.8-26.7v28.5
			c0,14.7,43.8,26.7,97.8,26.7c54,0,97.8-11.9,97.8-26.7v-28.5C404.1,217.7,360.3,229.6,306.3,229.6z M306.3,170.9
			c54,0,97.8,11.9,97.8,26.7c0,14.7-43.8,26.7-97.8,26.7c-54,0-97.8-11.9-97.8-26.7C208.5,182.8,252.3,170.9,306.3,170.9z
			 M320.5,196.8l-57.9-3.9l-3.5,6.3l85.9,5.9l2.9-5.3l-3.2-0.4c-4.4-0.6-9.9-2-7.3-6.6l0.8-1.4l-15.9-1.1l-0.8,1.4
			C320.4,193.6,320.1,195.3,320.5,196.8z M306.3,265.3c-54,0-97.8-11.9-97.8-26.7v28.5c0,14.7,43.8,26.7,97.8,26.7
			c54,0,97.8-11.9,97.8-26.7v-28.4C404.1,253.4,360.3,265.3,306.3,265.3z M306.3,301.2c-54,0-97.8-11.9-97.8-26.7V303
			c0,14.7,43.8,26.7,97.8,26.7c54,0,97.8-11.9,97.8-26.7v-28.4C404.1,289.3,360.3,301.2,306.3,301.2z M306.3,336.6
			c-54,0-97.8-11.9-97.8-26.7v28.5c0,14.7,43.8,26.7,97.8,26.7c54,0,97.8-11.9,97.8-26.7v-28.5C404.1,324.6,360.3,336.6,306.3,336.6
			z"/>
	</g>
</g>
</svg>
