<?xml version="1.0" encoding="utf-8"?>
<!-- Generator: Adobe Illustrator 21.0.2, SVG Export Plug-In . SVG Version: 6.00 Build 0)  -->
<svg version="1.1" id="Capa_1" xmlns="http://www.w3.org/2000/svg" xmlns:xlink="http://www.w3.org/1999/xlink" x="0px" y="0px"
	 viewBox="0 0 39.4 45.9" style="enable-background:new 0 0 39.4 45.9;" xml:space="preserve">
<g>
	<g>
		<path d="M38.6,25.9l-3.5-0.6v-1.6c0-3.9-2.7-6.8-6.3-6.8H11.1c-3.7,0-6.8,3-6.8,6.8v1.6l-3.6,0.6C0.3,26,0,26.3,0,26.8v0.9
			c0,0.5,0.4,0.9,0.9,0.9h1c-0.2,0.4-0.4,0.9-0.4,1.4v7.7c0,1.2,0.8,2.2,1.9,2.5V45c0,0.5,0.4,0.9,0.9,0.9h4.2
			c0.5,0,0.9-0.4,0.9-0.9v-4.8h20.7V45c0,0.5,0.4,0.9,0.9,0.9h4.2c0.5,0,0.9-0.4,0.9-0.9v-5c1-0.4,1.6-1.3,1.6-2.4v-7.7
			c0-0.5-0.1-0.9-0.4-1.4h0.8c0.5,0,0.9-0.4,0.9-0.9v-0.9C39.4,26.3,39,25.9,38.6,25.9z M7.8,23.7c0-1.8,1.5-3.3,3.3-3.3h5.2
			c0,0,0,0,0,0.1V22c0,0.3,0.2,0.5,0.5,0.5h5.4c0.3,0,0.5-0.2,0.5-0.5v-1.5c0,0,0-0.1,0-0.1h6c2,0,2.9,1.7,2.9,3.3v2.7H7.8V23.7z
			 M9.5,35.9c-1,0-1.8-0.8-1.8-1.8c0-1,0.8-1.8,1.8-1.8c1,0,1.8,0.8,1.8,1.8S10.5,35.9,9.5,35.9z M25,35.8H14.5
			c-1,0-1.7-0.8-1.7-1.7c0-1,0.8-1.7,1.7-1.7H25c1,0,1.7,0.8,1.7,1.7C26.8,35,26,35.8,25,35.8z M28.2,34.1c0-1,0.8-1.8,1.8-1.8
			s1.8,0.8,1.8,1.8s-0.8,1.8-1.8,1.8C29,35.9,28.2,35.1,28.2,34.1z"/>
		<path d="M30.2,0c-2.6,0-4.9,1.5-6.1,3.7h-1.6c-0.2,0-0.4,0-0.5,0.1L20,5c-0.2,0.2-0.5,0.1-0.8,0l-1.8-1.2c-0.2-0.2-0.5-0.2-0.8,0
			L14.8,5c-0.2,0.2-0.6,0.2-0.8,0l-1.9-1.1c-0.3-0.2-0.6-0.2-0.8,0L10,4.6c-0.2,0.1-0.5,0.1-0.7,0L8,3.8C7.8,3.7,7.7,3.7,7.5,3.7
			H5.6C3.8,3.7,2.2,5.1,2.2,7c0,1.7,1.4,3,3.2,3h18.7c1.2,2.2,3.5,3.7,6.1,3.7c3.8,0,6.9-3,6.9-6.9C37.1,3,34,0,30.2,0z M32.1,9.1
			c-1.2,0-2.2-1-2.2-2.2c0-1.2,1-2.2,2.2-2.2s2.2,1,2.2,2.2S33.3,9.1,32.1,9.1z"/>
	</g>
</g>
</svg>
