<?xml version="1.0" encoding="utf-8"?>
<!-- Generator: Adobe Illustrator 21.0.2, SVG Export Plug-In . SVG Version: 6.00 Build 0)  -->
<svg version="1.1" id="Capa_1" xmlns="http://www.w3.org/2000/svg" xmlns:xlink="http://www.w3.org/1999/xlink" x="0px" y="0px"
	 viewBox="0 0 612 705.3" style="enable-background:new 0 0 612 705.3;" xml:space="preserve">
<g>
	<g>
		<path d="M348.6,118V91.6l64.9,0v-5.6C413.5,38.5,375,0,327.4,0h-62.6c-47.5,0-86.1,38.5-86.1,86.1v5.5l66.3,0v26.2
			C105.9,142,0,263.1,0,409.2c0,163.6,132.6,296.1,296.1,296.1c163.5,0,296.1-132.5,296.1-296.1C592.2,263.6,487,142.8,348.6,118z
			 M296.1,637.5c-125.9,0-228.3-102.4-228.3-228.4c0-125.9,102.4-228.3,228.3-228.3c125.9,0,228.3,102.4,228.3,228.3
			C524.4,535.1,422,637.5,296.1,637.5z"/>
		<path d="M605.3,153.3l-48-48c-4.3-4.3-10.1-6.7-16.1-6.7s-11.8,2.4-16.1,6.7l-38.9,38.9l80.2,80.2l38.9-38.9
			C614.2,176.6,614.2,162.2,605.3,153.3z"/>
		<path d="M295.1,195.2c-117.7,0.5-213,96.1-213,213.9c0,118.2,95.8,214,214,214c118.2,0,214-95.8,214-214h-215V195.2z"/>
	</g>
</g>
</svg>
